# xmcd
# 
# Track frame offsets:
#     182
#     40105
#     68390
#     88180
#     116487
#     139737
# 
# Disc length: 2200
# 
# Revision: 0
# Processed by: cddbd v1.5.2PL0 Copyright (c) Steve Scherf et al.
# Submitted via: BonkEnc v1.0.8
# 
DISCID=47089606
DTITLE=Daniel Humair, David Friedman, Harvie Swartz - Triple Hip Trip
DYEAR=1979
DGENRE=Contemporary Jazz
TTITLE0=A Swiss Celebration
TTITLE1=Triple Hip Trip
TTITLE2=Rome Antique
TTITLE3=Bram Van Velde
TTITLE4=Circle Waltz
TTITLE5=Perimeter's
EXTD=
EXTT0=
EXTT1=
EXTT2=
EXTT3=
EXTT4=
EXTT5=
PLAYORDER=
